<?xml version="1.0" encoding="iso-8859-1"?>
<!-- Generator: Adobe Illustrator 19.0.0, SVG Export Plug-In . SVG Version: 6.00 Build 0)  -->
<svg version="1.1" id="Layer_1" xmlns="http://www.w3.org/2000/svg" xmlns:xlink="http://www.w3.org/1999/xlink" x="0px" y="0px"
	 viewBox="0 0 512 512" style="enable-background:new 0 0 512 512;" xml:space="preserve">
<g transform="translate(1)">
	<g>
		<path d="M511,34.133c0-9.387-3.413-17.92-10.24-24.747C494.787,3.413,486.253,0,476.867,0c-8.533,0-17.067,3.413-23.893,10.24
			L334.406,132.674c-0.245,0.223-0.478,0.459-0.691,0.714L138.947,334.507c-6.827-6.827-17.067-6.827-23.893,0l-42.667,42.667
			c-0.766,0.766-1.299,1.609-1.652,2.505L1.56,448.853c-3.413,3.413-3.413,8.533,0,11.947c1.707,1.707,3.413,2.56,5.973,2.56
			s4.267-0.853,5.973-2.56l68.917-68.917c6.699,0.671,12.905,2.986,18.214,6.533L38.253,460.8c-3.413,3.413-3.413,8.533,0,11.947
			c1.707,1.707,3.413,2.56,5.973,2.56c1.707,0,4.267-0.853,5.973-2.56l62.197-62.197c3.433,5.499,5.57,11.892,5.986,18.76
			L50.2,497.493c-3.413,3.413-3.413,8.533,0,11.947c1.707,1.707,3.413,2.56,5.973,2.56c1.707,0,4.267-0.853,5.973-2.56l71.68-71.68
			c0,0,0,0,0.001-0.001l41.813-41.813c6.827-6.827,6.827-17.067,0-23.893L500.76,58.027C507.587,51.2,511,42.667,511,34.133z
			 M383,107.884l17.067-17.67v40.506L383,147.162V107.884z M365.933,163.603l-17.067,16.441v-36.821l17.067-17.67V163.603z
			 M162.84,359.253c-6.827,6.827-6.827,17.067,0,23.893l-30.72,30.72c-2.194-7.314-5.965-13.837-10.891-19.382
			c-0.427-1.005-1.062-1.957-1.909-2.804c-0.853-0.853-1.813-1.493-2.826-1.92c-5.774-5.1-12.657-9.089-20.214-11.734l31.573-30.72
			c3.413,3.413,7.68,5.12,11.947,5.12s8.533-1.707,11.947-5.12L331.8,160.893v35.593L162.84,359.253z M488.813,45.227l-71.68,69.053
			V72.545l48.64-50.358c3.413-3.413,7.68-5.12,11.947-5.12s8.533,1.707,11.093,4.267c3.413,3.413,5.12,7.68,5.12,11.947
			C493.933,38.4,492.227,42.667,488.813,45.227z"/>
	</g>
</g>
<g>
</g>
<g>
</g>
<g>
</g>
<g>
</g>
<g>
</g>
<g>
</g>
<g>
</g>
<g>
</g>
<g>
</g>
<g>
</g>
<g>
</g>
<g>
</g>
<g>
</g>
<g>
</g>
<g>
</g>
</svg>
